<svg width="200" height="200" viewBox="0 0 200 200" fill="none" xmlns="http://www.w3.org/2000/svg">
<path d="M54 45.668H49.832V154H54V45.668Z" fill="#33FE99"/>
<path fill-rule="evenodd" clip-rule="evenodd" d="M37.336 45.668H33.168V154H37.336V45.668ZM41.5 45.668H45.668V154H41.5V45.668ZM72.4091 133.494C71.1449 132.155 69.9478 130.747 68.8239 129.272C61.9034 120.238 58.1678 109.168 58.1999 97.7881C58.1999 83.9746 63.6873 70.7268 73.455 60.9592C83.2226 51.1915 96.4704 45.7041 110.284 45.7041C123.581 45.7041 136.354 50.7887 146.003 59.8813L160.212 45.668H166.108L148.92 62.8595C157.555 72.41 162.368 84.8509 162.368 97.7881C162.397 109.059 158.726 120.028 151.92 129.012H146.572C152.466 122.172 156.308 113.807 157.657 104.88C159.006 95.9523 157.805 86.8255 154.195 78.5501C152.149 73.862 149.377 69.5552 146.002 65.7779L140.069 71.7117C142.799 74.8391 145.038 78.3969 146.683 82.2689C150.097 90.3073 150.758 99.2489 148.564 107.702C146.369 116.155 141.441 123.646 134.548 129.008H126.988C134.033 125.23 139.593 119.178 142.763 111.839C145.932 104.499 146.526 96.3031 144.446 88.5837C143.057 83.4282 140.53 78.6879 137.09 74.6917L131.199 80.5835C131.756 81.2626 132.281 81.9704 132.772 82.705C135.748 87.1589 137.336 92.3953 137.336 97.752C137.328 104.933 134.471 111.817 129.394 116.894C124.317 121.971 117.433 124.828 110.252 124.836C104.895 124.836 99.6589 123.248 95.205 120.272C94.4718 119.782 93.7653 119.258 93.0873 118.702L87.1484 124.642C89.699 126.837 92.5666 128.672 95.6759 130.076V134.576H95.6719C91.4499 132.907 87.5763 130.536 84.2007 127.591L78.3367 133.456C83.3346 137.913 89.2295 141.311 95.6679 143.396V147.76L95.6719 147.776C88.1054 145.54 81.1825 141.639 75.3872 136.406L57.7962 154H51.9082L72.4091 133.494ZM134.189 71.6979L128.316 77.5722C126.053 75.5462 123.453 73.9045 120.617 72.7296C115.668 70.6797 110.222 70.1433 104.968 71.1884C99.7144 72.2334 94.8885 74.813 91.1007 78.6007C87.313 82.3885 84.7334 87.2144 83.6884 92.4682C82.6433 97.722 83.1797 103.168 85.2296 108.117C86.4054 110.955 88.0487 113.557 90.0768 115.821L84.1559 121.744C82.0382 119.437 80.222 116.843 78.7678 114.022C75.1054 106.915 73.9553 98.7784 75.5044 90.9351C77.0534 83.0919 81.2106 76.0035 87.2998 70.823C93.3889 65.6425 101.052 62.6745 109.042 62.402C117.032 62.1294 124.879 64.5684 131.307 69.322C132.313 70.0656 133.274 70.859 134.189 71.6979ZM87.7763 102.223C88.5633 106.18 90.3791 109.85 93.0289 112.869L98.9413 106.955C98.0529 105.863 97.3224 104.643 96.7781 103.329C95.6742 100.664 95.3855 97.7319 95.9482 94.9029C96.511 92.0739 97.8999 89.4752 99.9396 87.4356C101.979 85.396 104.578 84.007 107.407 83.4443C110.236 82.8815 113.168 83.1704 115.833 84.2742C117.146 84.8181 118.365 85.5478 119.456 86.435L125.364 80.525C121.197 76.8691 115.829 74.836 110.252 74.836C105.72 74.836 101.289 76.18 97.5205 78.698C93.752 81.2161 90.8148 84.7951 89.0804 88.9825C87.3459 93.1698 86.8921 97.7774 87.7763 102.223ZM102.009 109.779C102.056 109.811 102.102 109.843 102.15 109.874C104.548 111.477 107.367 112.332 110.252 112.332C114.12 112.332 117.829 110.796 120.564 108.06C123.299 105.325 124.836 101.616 124.836 97.7481C124.836 94.8637 123.981 92.0439 122.378 89.6456C122.346 89.5978 122.314 89.5502 122.282 89.5028L128.235 83.548C131.414 87.5725 133.168 92.5719 133.168 97.752C133.168 102.284 131.824 106.715 129.306 110.483C126.788 114.252 123.209 117.189 119.022 118.924C114.834 120.658 110.227 121.112 105.781 120.228C102.216 119.519 98.8843 117.975 96.0513 115.738L102.009 109.779ZM75.35 130.552L81.21 124.691C79.3366 122.672 77.6682 120.453 76.2392 118.061C71.76 110.563 69.885 101.796 70.9058 93.122C71.9267 84.4484 75.7862 76.3556 81.8838 70.1031C87.9813 63.8506 95.9747 59.7891 104.62 58.5509C113.265 57.3127 122.077 58.9672 129.685 63.2568C132.401 64.7883 134.909 66.625 137.167 68.7195L143.091 62.7931C141.276 61.0866 139.324 59.5176 137.248 58.1037C129.786 53.0202 121.041 50.1474 112.018 49.816C102.995 49.4847 94.0625 51.7082 86.248 56.2307C78.4334 60.7531 72.055 67.3906 67.8471 75.3788C63.6391 83.3671 61.7728 92.3814 62.4629 101.384C63.153 110.386 66.3715 119.011 71.7479 126.264C72.8691 127.767 74.0723 129.198 75.35 130.552ZM108.68 149.832C107.634 149.891 106.6 149.576 105.764 148.944C105.365 148.527 105.064 148.028 104.881 147.481C104.697 146.934 104.637 146.353 104.704 145.78V139.68H101.58V137.432H103.432C103.794 137.467 104.154 137.356 104.435 137.125C104.715 136.895 104.893 136.562 104.928 136.2L105.304 134.2H107.352V137.452H112.252V139.7H107.352V145.752C107.325 145.997 107.35 146.245 107.425 146.48C107.5 146.715 107.624 146.932 107.788 147.116C108.23 147.422 108.765 147.564 109.3 147.516H112.216V149.864L108.68 149.832ZM121.228 150.132C120.591 150.175 119.953 150.073 119.362 149.832C118.771 149.592 118.242 149.22 117.816 148.744C116.966 147.577 116.554 146.148 116.652 144.708V137.432H119.304V144.38C119.252 145.232 119.486 146.076 119.968 146.78C120.213 147.077 120.526 147.31 120.881 147.461C121.235 147.611 121.62 147.674 122.004 147.644C122.43 147.655 122.854 147.579 123.25 147.42C123.645 147.261 124.004 147.023 124.304 146.72C124.633 146.36 124.885 145.938 125.047 145.478C125.208 145.018 125.275 144.53 125.244 144.044V137.444H127.896V149.844H125.58L125.356 147.996H125.248C124.877 148.633 124.343 149.159 123.7 149.52C122.949 149.947 122.095 150.159 121.232 150.132H121.228ZM138.004 150.132C137.196 150.159 136.397 149.964 135.692 149.568C135.072 149.197 134.573 148.654 134.256 148.004H134.108L133.884 149.828H131.608V131.828H134.256V139.028C134.608 138.477 135.092 138.022 135.664 137.704C136.372 137.305 137.176 137.106 137.988 137.128C138.964 137.112 139.925 137.367 140.764 137.864C141.61 138.388 142.283 139.149 142.7 140.052C143.171 141.186 143.413 142.401 143.413 143.628C143.413 144.855 143.171 146.071 142.7 147.204C142.282 148.107 141.609 148.868 140.764 149.392C139.93 149.888 138.975 150.144 138.004 150.132ZM137.454 147.608C137.897 147.621 138.337 147.54 138.746 147.37C139.156 147.2 139.525 146.944 139.828 146.62C140.511 145.79 140.846 144.728 140.764 143.656C140.845 142.576 140.51 141.506 139.828 140.664C139.52 140.35 139.153 140.1 138.747 139.929C138.342 139.758 137.906 139.67 137.466 139.67C137.026 139.67 136.59 139.758 136.185 139.929C135.779 140.1 135.412 140.35 135.104 140.664C134.492 141.538 134.164 142.579 134.164 143.646C134.164 144.713 134.492 145.754 135.104 146.628C135.404 146.949 135.769 147.202 136.175 147.371C136.58 147.54 137.016 147.621 137.454 147.608ZM152.476 150.132C151.361 150.149 150.263 149.861 149.3 149.3C148.385 148.761 147.64 147.977 147.148 147.036C146.613 145.993 146.346 144.832 146.372 143.66C146.347 142.474 146.609 141.299 147.136 140.236C147.619 139.279 148.365 138.481 149.288 137.936C150.259 137.373 151.366 137.085 152.488 137.104C153.58 137.08 154.655 137.369 155.588 137.936C156.436 138.466 157.126 139.213 157.588 140.1C158.067 141.018 158.312 142.041 158.3 143.076V143.612C158.3 143.804 158.292 144.016 158.276 144.248H148.992C148.997 144.736 149.099 145.218 149.292 145.667C149.485 146.115 149.765 146.521 150.116 146.86C150.754 147.439 151.587 147.756 152.448 147.748C153.105 147.784 153.757 147.613 154.312 147.26C154.776 146.927 155.129 146.461 155.324 145.924H158C157.709 147.094 157.051 148.141 156.124 148.912C155.099 149.751 153.803 150.184 152.48 150.132H152.476ZM152.476 139.432C151.688 139.422 150.92 139.681 150.3 140.168C149.649 140.688 149.213 141.43 149.076 142.252H155.66C155.639 141.867 155.542 141.49 155.375 141.142C155.207 140.795 154.973 140.484 154.684 140.228C154.074 139.694 153.286 139.409 152.476 139.428V139.432Z" fill="#33FE99"/>
</svg>
