<svg width="126" height="34" viewBox="0 0 126 34" fill="none" xmlns="http://www.w3.org/2000/svg">
<path d="M8 16.506C7.99881 14.0335 8.73092 11.6161 10.1037 9.55974C11.4765 7.50334 13.4283 5.90025 15.7123 4.95323C17.9963 4.00622 20.5098 3.75782 22.935 4.23946C25.3601 4.7211 27.588 5.91113 29.3367 7.65905C31.0855 9.40697 32.2766 11.6342 32.7594 14.0592C33.2422 16.4841 32.995 18.9977 32.0491 21.2822C31.1031 23.5666 29.501 25.5192 27.4453 26.893C25.3895 28.2667 22.9725 29 20.5 29C17.187 28.9963 14.0106 27.679 11.6674 25.3369C9.32415 22.9948 8.00529 19.819 8 16.506V16.506ZM8.992 16.506C8.99319 18.7799 9.66846 21.0024 10.9325 22.8926C12.1965 24.7828 13.9925 26.2559 16.0935 27.1256C18.1944 27.9953 20.5061 28.2226 22.7363 27.7789C24.9664 27.3351 27.015 26.2402 28.623 24.6324C30.231 23.0247 31.3263 20.9763 31.7705 18.7462C32.2146 16.5161 31.9877 14.2044 31.1183 12.1033C30.249 10.0022 28.7762 8.20591 26.8863 6.94158C24.9963 5.67724 22.7739 5.00159 20.5 5.00001C17.4484 5.00054 14.5219 6.21288 12.3639 8.3705C10.2059 10.5281 8.99306 13.4544 8.992 16.506V16.506ZM10.992 16.506C10.9908 14.6272 11.5468 12.7902 12.5896 11.2273C13.6324 9.66441 15.1152 8.44583 16.8505 7.72564C18.5858 7.00546 20.4957 6.816 22.3387 7.18123C24.1817 7.54647 25.875 8.44999 27.2046 9.77755C28.5341 11.1051 29.4401 12.7971 29.808 14.6395C30.176 16.482 29.9894 18.3922 29.2717 20.1286C28.5541 21.865 27.3377 23.3496 25.7764 24.3947C24.215 25.4398 22.3788 25.9984 20.5 26C17.9821 25.9982 15.5677 24.9975 13.7867 23.2176C12.0056 21.4377 11.0034 19.024 11 16.506H10.992ZM11.992 16.506C11.992 18.1871 12.4905 19.8305 13.4245 21.2284C14.3585 22.6262 15.686 23.7156 17.2392 24.359C18.7924 25.0023 20.5014 25.1707 22.1503 24.8427C23.7991 24.5147 25.3137 23.7052 26.5024 22.5164C27.6912 21.3277 28.5007 19.8131 28.8287 18.1643C29.1567 16.5154 28.9883 14.8064 28.345 13.2532C27.7016 11.7 26.6122 10.3725 25.2143 9.43851C23.8165 8.50452 22.1731 8.00601 20.492 8.00601C18.2396 8.00998 16.0807 8.90704 14.4888 10.5005C12.8969 12.0939 12.0019 14.2536 12 16.506H11.992Z" fill="#33FF99"/>
<path d="M5 4H4V30H5V4Z" fill="#33FF99"/>
<path d="M3 4H2V30H3V4Z" fill="#33FF99"/>
<path d="M7 4H6V30H7V4Z" fill="#33FF99"/>
<path d="M7.91095 30H6.49792L32.491 4H33.9059L7.91095 30Z" fill="#33FF99"/>
<path d="M20.5 23C19.2144 23 17.9577 22.6188 16.8888 21.9045C15.8199 21.1903 14.9868 20.1752 14.4948 18.9874C14.0029 17.7997 13.8741 16.4928 14.1249 15.2319C14.3757 13.9711 14.9948 12.8129 15.9038 11.9038C16.8129 10.9948 17.9711 10.3757 19.2319 10.1249C20.4928 9.87408 21.7997 10.0029 22.9874 10.4948C24.1752 10.9868 25.1903 11.8199 25.9045 12.8888C26.6188 13.9577 27 15.2144 27 16.5C26.9979 18.2233 26.3124 19.8754 25.0939 21.0939C23.8754 22.3124 22.2233 22.9979 20.5 23V23ZM20.5 11C19.4122 11 18.3489 11.3226 17.4444 11.9269C16.5399 12.5313 15.8349 13.3903 15.4186 14.3953C15.0024 15.4003 14.8935 16.5061 15.1057 17.573C15.3179 18.6399 15.8417 19.6199 16.6109 20.3891C17.3801 21.1583 18.3601 21.6821 19.427 21.8944C20.4939 22.1066 21.5998 21.9977 22.6047 21.5814C23.6097 21.1651 24.4687 20.4601 25.0731 19.5557C25.6774 18.6512 26 17.5878 26 16.5C25.9987 15.0416 25.4188 13.6433 24.3877 12.612C23.3566 11.5807 21.9584 11.0006 20.5 10.999V11Z" fill="#33FF99"/>
<path d="M20.5 19.999C19.8078 19.999 19.131 19.7937 18.5555 19.4091C17.9799 19.0245 17.5313 18.4779 17.2664 17.8384C17.0015 17.1988 16.9322 16.4951 17.0673 15.8162C17.2023 15.1372 17.5357 14.5136 18.0251 14.0241C18.5146 13.5346 19.1383 13.2013 19.8172 13.0663C20.4961 12.9312 21.1999 13.0005 21.8394 13.2654C22.479 13.5303 23.0256 13.9789 23.4102 14.5545C23.7947 15.1301 24 15.8068 24 16.499C24 17.4273 23.6312 18.3175 22.9748 18.9739C22.3185 19.6302 21.4283 19.999 20.5 19.999Z" fill="#33FF99"/>
<path d="M47.712 26.0001C46.3493 26.0001 45.2667 25.6734 44.464 25.0201C43.6613 24.3481 43.26 23.1628 43.26 21.4641V14.6321H39.76V12.1121H41.832C42.784 12.1121 43.344 11.6454 43.512 10.7121L43.932 8.47209H46.228V12.1121H51.716V14.6321H46.228V21.4081C46.228 22.1361 46.3867 22.6494 46.704 22.9481C47.04 23.2281 47.6093 23.3681 48.412 23.3681H51.66V26.0001H47.712Z" fill="#33FF99"/>
<path d="M61.7571 26.3361C60.0771 26.3361 58.7984 25.8228 57.9211 24.7961C57.0624 23.7508 56.6331 22.2388 56.6331 20.2601V12.1121H59.6011V19.8961C59.6011 21.0348 59.8437 21.9308 60.3291 22.5841C60.8331 23.2188 61.5984 23.5361 62.6251 23.5361C63.6517 23.5361 64.5104 23.1908 65.2011 22.5001C65.8917 21.8094 66.2371 20.8108 66.2371 19.5041V12.1121H69.2051V26.0001H66.6291L66.3771 23.9281H66.2371C65.8637 24.6001 65.2851 25.1694 64.5011 25.6361C63.7171 26.1028 62.8024 26.3361 61.7571 26.3361Z" fill="#33FF99"/>
<path d="M80.5341 26.3361C79.5075 26.3361 78.6395 26.1308 77.9301 25.7201C77.2395 25.2908 76.7075 24.7028 76.3341 23.9561H76.1661L75.9141 26.0001H73.3661V5.84009H76.3341V13.9041C76.6701 13.3441 77.2021 12.8494 77.9301 12.4201C78.6581 11.9908 79.5261 11.7761 80.5341 11.7761C81.6915 11.7761 82.7275 12.0561 83.6421 12.6161C84.5568 13.1574 85.2755 13.9694 85.7981 15.0521C86.3395 16.1348 86.6101 17.4694 86.6101 19.0561C86.6101 20.6428 86.3395 21.9774 85.7981 23.0601C85.2755 24.1428 84.5568 24.9641 83.6421 25.5241C82.7275 26.0654 81.6915 26.3361 80.5341 26.3361ZM79.9181 23.5081C80.9821 23.5081 81.8595 23.1441 82.5501 22.4161C83.2595 21.6694 83.6141 20.5588 83.6141 19.0841C83.6141 17.5908 83.2595 16.4708 82.5501 15.7241C81.8595 14.9774 80.9821 14.6041 79.9181 14.6041C78.8541 14.6041 77.9675 14.9774 77.2581 15.7241C76.5675 16.4521 76.2221 17.5628 76.2221 19.0561C76.2221 20.5308 76.5675 21.6414 77.2581 22.3881C77.9675 23.1348 78.8541 23.5081 79.9181 23.5081Z" fill="#33FF99"/>
<path d="M96.7352 26.3361C95.3912 26.3361 94.2059 26.0374 93.1792 25.4401C92.1525 24.8241 91.3499 23.9748 90.7712 22.8921C90.1925 21.8094 89.9032 20.5494 89.9032 19.1121C89.9032 17.6561 90.1832 16.3774 90.7432 15.2761C91.3219 14.1748 92.1245 13.3161 93.1512 12.7001C94.1965 12.0841 95.4005 11.7761 96.7632 11.7761C98.1072 11.7761 99.2645 12.0841 100.235 12.7001C101.206 13.2974 101.953 14.1001 102.475 15.1081C103.017 16.1161 103.287 17.2268 103.287 18.4401C103.287 18.6268 103.287 18.8321 103.287 19.0561C103.287 19.2614 103.278 19.4948 103.259 19.7561H92.8152C92.9085 21.0441 93.3285 22.0241 94.0752 22.6961C94.8219 23.3494 95.6992 23.6761 96.7072 23.6761C97.5845 23.6761 98.2752 23.4988 98.7792 23.1441C99.3019 22.7708 99.6845 22.2668 99.9272 21.6321H102.923C102.587 22.9574 101.887 24.0774 100.823 24.9921C99.7592 25.8881 98.3965 26.3361 96.7352 26.3361ZM96.7352 14.3521C95.8205 14.3521 95.0085 14.6321 94.2992 15.1921C93.5899 15.7334 93.1325 16.4988 92.9272 17.4881H100.319C100.245 16.5548 99.8805 15.7988 99.2272 15.2201C98.5739 14.6414 97.7432 14.3521 96.7352 14.3521Z" fill="#33FF99"/>
</svg>
